<svg xmlns="http://www.w3.org/2000/svg" viewBox="0 0 248.61 249"><defs><style>.cls-1{fill:#0d022b;fill-rule:evenodd;}</style></defs><g id="Layer_2" data-name="Layer 2"><g id="Layer_1-2" data-name="Layer 1"><path class="cls-1" d="M199,49.41a4.3,4.3,0,0,1,0-6.61,5.59,5.59,0,0,1,7.2,0,4.28,4.28,0,0,1,0,6.61,6,6,0,0,1-3.5,1.36A3.92,3.92,0,0,1,199,49.41Z"/><path class="cls-1" d="M186.55,62.83a4.7,4.7,0,0,1,0-6.61,4.83,4.83,0,0,1,6.62,0,4.68,4.68,0,0,1-6.62,6.61Z"/><path class="cls-1" d="M172.94,75.67a4.69,4.69,0,0,1-1.37-3.31,5.05,5.05,0,0,1,1.37-3.3,4.82,4.82,0,0,1,6.61,0,4.67,4.67,0,0,1,1.36,3.3,5,5,0,0,1-1.36,3.31A4.28,4.28,0,0,1,176.24,77,4.66,4.66,0,0,1,172.94,75.67Z"/><path class="cls-1" d="M159.9,88.71a4.17,4.17,0,0,1-1.55-3.31,4.46,4.46,0,0,1,1.55-3.31,5.59,5.59,0,0,1,7.2,0,4.29,4.29,0,0,1,0,6.62,5,5,0,0,1-3.5,1.36A4.7,4.7,0,0,1,159.9,88.71Z"/><path class="cls-1" d="M147.45,101.74a4,4,0,0,1-1.36-3.31,5.09,5.09,0,0,1,1.36-3.31,4.83,4.83,0,0,1,6.62,0,4,4,0,0,1,1.36,3.31,4.74,4.74,0,0,1-1.36,3.31,4,4,0,0,1-3.31,1.36A3.3,3.3,0,0,1,147.45,101.74Z"/><path class="cls-1" d="M132.47,111.46a5.05,5.05,0,0,1,1.37-3.3,4.82,4.82,0,0,1,6.61,0,4.26,4.26,0,0,1,1.36,3.3,5,5,0,0,1-1.36,3.31,4.7,4.7,0,0,1-3.31,1.36,5,5,0,0,1-3.3-1.36A4,4,0,0,1,132.47,111.46Z"/><path class="cls-1" d="M108.16,140.26A4.7,4.7,0,0,1,106.8,137a5.07,5.07,0,0,1,1.36-3.31,4.82,4.82,0,0,1,6.61,0,4.28,4.28,0,0,1,1.36,3.31,5.09,5.09,0,0,1-1.36,3.31,4,4,0,0,1-3.31,1.36A3.45,3.45,0,0,1,108.16,140.26Z"/><path class="cls-1" d="M94.74,153.29A4.15,4.15,0,0,1,93.18,150a4.45,4.45,0,0,1,1.56-3.31,5.58,5.58,0,0,1,7.19,0,4.29,4.29,0,0,1,0,6.62,5,5,0,0,1-3.5,1.36A4.24,4.24,0,0,1,94.74,153.29Z"/><path class="cls-1" d="M82.09,166.52a4.71,4.71,0,0,1,0-6.62,4.83,4.83,0,0,1,6.62,0,4.74,4.74,0,0,1,1.36,3.31,5.14,5.14,0,0,1-1.36,3.31,4.29,4.29,0,0,1-3.31,1.36A5.59,5.59,0,0,1,82.09,166.52Z"/><path class="cls-1" d="M69.06,179.55a4,4,0,0,1-1.36-3.31,5,5,0,0,1,1.36-3.3,4.82,4.82,0,0,1,6.61,0,5,5,0,0,1,1.36,3.3,4.7,4.7,0,0,1-1.36,3.31,4.7,4.7,0,0,1-6.61,0Z"/><path class="cls-1" d="M55.64,192.58a4.11,4.11,0,0,1-1.56-3.3A4.42,4.42,0,0,1,55.64,186a5.06,5.06,0,0,1,6.8,0A4.42,4.42,0,0,1,64,189.28a4.11,4.11,0,0,1-1.56,3.3,6,6,0,0,1-3.5,1.37A4,4,0,0,1,55.64,192.58Z"/><path class="cls-1" d="M42.8,205.62a4.27,4.27,0,0,1-1.37-3.31A5.1,5.1,0,0,1,42.8,199a4.82,4.82,0,0,1,6.61,0,4.29,4.29,0,0,1,1.36,3.31,5.09,5.09,0,0,1-1.36,3.31A4.74,4.74,0,0,1,46.1,207C45.13,207.17,44,206.59,42.8,205.62Z"/><path class="cls-1" d="M49.41,49.41a4.7,4.7,0,0,0,0-6.61,4.82,4.82,0,0,0-6.61,0,4.23,4.23,0,0,0-1.37,3.3,5.08,5.08,0,0,0,1.37,3.31,4.66,4.66,0,0,0,3.3,1.36A3.15,3.15,0,0,0,49.41,49.41Z"/><path class="cls-1" d="M62.44,62.83a4.28,4.28,0,0,0,0-6.61,5.58,5.58,0,0,0-7.19,0,4.28,4.28,0,0,0,0,6.61,6,6,0,0,0,3.5,1.36A7.61,7.61,0,0,0,62.44,62.83Z"/><path class="cls-1" d="M75.67,75.67A4.68,4.68,0,0,0,77,72.36a5,5,0,0,0-1.36-3.3,4.82,4.82,0,0,0-6.61,0,4.67,4.67,0,0,0-1.36,3.3,5,5,0,0,0,1.36,3.31A4.26,4.26,0,0,0,72.36,77,5.5,5.5,0,0,0,75.67,75.67Z"/><path class="cls-1" d="M88.71,88.71a4.74,4.74,0,0,0,1.36-3.31,5.12,5.12,0,0,0-1.36-3.31,4.83,4.83,0,0,0-6.62,0,4.71,4.71,0,0,0,0,6.62,4.28,4.28,0,0,0,3.31,1.36A3.93,3.93,0,0,0,88.71,88.71Z"/><path class="cls-1" d="M101.54,101.74a4.15,4.15,0,0,0,1.56-3.31,4.45,4.45,0,0,0-1.56-3.31,5.06,5.06,0,0,0-6.8,0,4.29,4.29,0,0,0,0,6.62,5,5,0,0,0,3.5,1.36A3.28,3.28,0,0,0,101.54,101.74Z"/><path class="cls-1" d="M116.13,111.46a5,5,0,0,0-1.36-3.3,4.82,4.82,0,0,0-6.61,0,4.26,4.26,0,0,0-1.36,3.3,5,5,0,0,0,1.36,3.31,4.67,4.67,0,0,0,3.3,1.36,5,5,0,0,0,3.31-1.36A4,4,0,0,0,116.13,111.46Z"/><path class="cls-1" d="M127.81,128a4.28,4.28,0,0,0,1.36-3.31,5.1,5.1,0,0,0-1.36-3.3,4.83,4.83,0,0,0-6.62,0,4.26,4.26,0,0,0-1.36,3.3,5.07,5.07,0,0,0,1.36,3.31,4.71,4.71,0,0,0,6.62,0Z"/><path class="cls-1" d="M140.84,140.26a4.17,4.17,0,0,0,1.55-3.31,4.46,4.46,0,0,0-1.55-3.31,5.07,5.07,0,0,0-6.81,0,4.29,4.29,0,0,0,0,6.62,5,5,0,0,0,3.5,1.36A3.62,3.62,0,0,0,140.84,140.26Z"/><path class="cls-1" d="M154.07,153.29a4.74,4.74,0,0,0,1.36-3.31,5.14,5.14,0,0,0-1.36-3.31,4.83,4.83,0,0,0-6.62,0,4.71,4.71,0,0,0,0,6.62,4.29,4.29,0,0,0,3.31,1.36A4.16,4.16,0,0,0,154.07,153.29Z"/><path class="cls-1" d="M167.1,166.52a4.71,4.71,0,0,0,0-6.62,4.82,4.82,0,0,0-6.61,0,4.7,4.7,0,0,0-1.37,3.31,5.1,5.1,0,0,0,1.37,3.31,4.26,4.26,0,0,0,3.3,1.36A5.12,5.12,0,0,0,167.1,166.52Z"/><path class="cls-1" d="M179.36,179.55a4,4,0,0,0,1.36-3.31,5.1,5.1,0,0,0-1.36-3.3,4.83,4.83,0,0,0-6.62,0,5,5,0,0,0-1.36,3.3,4.7,4.7,0,0,0,1.36,3.31,4.71,4.71,0,0,0,6.62,0Z"/><path class="cls-1" d="M193.17,192.58a4,4,0,0,0,1.36-3.3,5,5,0,0,0-1.36-3.31,4.83,4.83,0,0,0-6.62,0,4.26,4.26,0,0,0-1.36,3.31,4.66,4.66,0,0,0,1.36,3.3,4.7,4.7,0,0,0,3.31,1.37A4,4,0,0,0,193.17,192.58Z"/><path class="cls-1" d="M206.2,205.62a4.29,4.29,0,0,0,0-6.62,5.07,5.07,0,0,0-6.81,0,4.31,4.31,0,0,0,0,6.62,6.12,6.12,0,0,0,3.5,1.36C203.87,207.17,205,206.59,206.2,205.62Z"/><path class="cls-1" d="M80.34,53.11c13.23-8.76,27.82-12.84,44-13a79.53,79.53,0,0,1,44,13l28-28C174.3,8.36,150.57,0,124.3,0S73.92,8.36,52.52,25.09Z"/><path class="cls-1" d="M52.33,168.07A77.4,77.4,0,0,1,39.1,124.5,76.1,76.1,0,0,1,52.33,80.92L24.51,53.11C8.17,74.5,0,98.24,0,124.69c0,26.07,8.17,50,24.71,71.78Z"/><path class="cls-1" d="M168.07,195.89A78.1,78.1,0,0,1,124.5,209.7c-16.15,0-30.93-4.28-44.16-13.62l-28,27.82C73.92,240.83,98,249.19,124.5,249c26.26-.2,50-8.76,71.39-25.1Z"/><path class="cls-1" d="M195.5,80.53c8.95,13.62,13.62,28.41,13.23,44.36a78.19,78.19,0,0,1-13.23,42.79l28,27.82c16.54-21.4,25.1-45.13,25.1-71.2.19-26.45-8.17-50.57-25.1-72.17Z"/><path class="cls-1" d="M224.68,204.64A19.65,19.65,0,1,1,205,224.29,19.72,19.72,0,0,1,224.68,204.64Z"/><path class="cls-1" d="M24.32,204.64A19.65,19.65,0,1,1,4.86,224.29,19.55,19.55,0,0,1,24.32,204.64Z"/><path class="cls-1" d="M225.07,4.28a19.65,19.65,0,1,1-19.45,19.65A19.55,19.55,0,0,1,225.07,4.28Z"/><path class="cls-1" d="M23.93,4.28A19.67,19.67,0,0,1,43.57,23.73,19.65,19.65,0,1,1,23.93,4.28Z"/></g></g></svg>