<svg xmlns="http://www.w3.org/2000/svg" viewBox="0 0 249.28 249"><g id="Layer_2" data-name="Layer 2"><g id="Layer_1-2" data-name="Layer 1"><path d="M199.75,12.73l-52,77.19c-3.6,5.25,3.32,11.62,8.3,7.19l51.18-44.54a2,2,0,0,1,3.32,1.66V193.39a2.06,2.06,0,0,1-3.59,1.38L52,9.41A25.58,25.58,0,0,0,31.82,0H26.28A26.51,26.51,0,0,0,0,26.56V222.44a26.57,26.57,0,0,0,49.25,13.83l52-77.19c3.6-5.25-3.32-11.62-8.3-7.19L41.78,196.16a2,2,0,0,1-3.32-1.66V55.61a2.06,2.06,0,0,1,3.59-1.38L197,239.59A26,26,0,0,0,217.18,249h5.54a26.57,26.57,0,0,0,26.56-26.56V26.56a26.75,26.75,0,0,0-49.53-13.83Z"/></g></g></svg>