<svg xmlns="http://www.w3.org/2000/svg" viewBox="0 0 75.02 77.23"><defs><style>.cls-1{fill:#ff2d20;fill-rule:evenodd;}</style></defs><g id="Layer_2" data-name="Layer 2"><g id="Layer_1-2" data-name="Layer 1"><path class="cls-1" d="M75,17.47a1.17,1.17,0,0,1,0,.32V34.37a1.2,1.2,0,0,1-.6,1l-13.92,8V59.3a1.2,1.2,0,0,1-.6,1.05l-29,16.72a.78.78,0,0,1-.21.09s-.05,0-.08,0a1.09,1.09,0,0,1-.62,0l-.09,0a.7.7,0,0,1-.2-.08L.61,60.35A1.19,1.19,0,0,1,0,59.3V9.57a1.75,1.75,0,0,1,0-.32,1,1,0,0,0,0-.1C.11,9.09.13,9,.16,9a.87.87,0,0,1,.08-.1,1.71,1.71,0,0,1,.11-.14.94.94,0,0,1,.12-.09A1.27,1.27,0,0,1,.6,8.52h0L15.13.16a1.22,1.22,0,0,1,1.2,0L30.85,8.52h0l.13.1.12.09.11.15a.87.87,0,0,1,.08.1c0,.06.05.13.08.19a1,1,0,0,0,0,.1,1.17,1.17,0,0,1,0,.32V40.63l12.1-7V17.79a1.65,1.65,0,0,1,0-.32.47.47,0,0,1,0-.1.77.77,0,0,1,.08-.19.76.76,0,0,1,.08-.11,1.1,1.1,0,0,1,.11-.14l.11-.09.14-.1h0L58.69,8.38a1.19,1.19,0,0,1,1.21,0l14.52,8.36.13.1.12.09a1.71,1.71,0,0,0,.11.14.76.76,0,0,1,.08.11.77.77,0,0,1,.08.19ZM72.6,33.67V19.88l-5.08,2.93-7,4V40.63l12.11-7ZM58.08,58.6V44.81l-6.9,3.94L31.46,60V73.93ZM2.42,11.66V58.6L29,73.93V60L15.13,52.14h0L15,52s-.08-.05-.11-.09h0a.64.64,0,0,1-.1-.13l-.1-.11h0l-.06-.15a.84.84,0,0,1-.06-.14h0a1.11,1.11,0,0,1,0-.17.78.78,0,0,1,0-.14h0V18.63l-7-4L2.42,11.66Zm13.31-9-12.1,7,12.1,7,12.1-7-12.1-7ZM22,46.07l7-4V11.66L24,14.59l-7,4V49ZM59.29,10.82l-12.09,7,12.09,7,12.1-7Zm-1.21,16-7-4L46,19.88V33.67l7,4,5.08,2.92ZM30.25,57.91,48,47.78l8.87-5.06-12.09-7-13.91,8-12.69,7.3Z"/></g></g></svg>