<svg xmlns="http://www.w3.org/2000/svg" xmlns:xlink="http://www.w3.org/1999/xlink" viewBox="0 0 69.2 75.67"><defs><style>.cls-1{fill:url(#linear-gradient);}.cls-2{fill:url(#linear-gradient-2);}.cls-3{fill:url(#radial-gradient);}</style><linearGradient id="linear-gradient" x1="-103.49" y1="175.23" x2="-103.48" y2="175.23" gradientTransform="translate(-16.42 -127341.55) rotate(-30.58) scale(626.08)" gradientUnits="userSpaceOnUse"><stop offset="0" stop-color="#909ca9"/><stop offset="1" stop-color="#ededee"/></linearGradient><linearGradient id="linear-gradient-2" x1="-105.94" y1="187.38" x2="-105.93" y2="187.38" gradientTransform="translate(45958.93 -81258.38) scale(433.7)" gradientUnits="userSpaceOnUse"><stop offset="0" stop-color="#939fab"/><stop offset="1" stop-color="#dcdee1"/></linearGradient><radialGradient id="radial-gradient" cx="-99.85" cy="176.92" r="0.01" gradientTransform="matrix(-552.96, -83.06, 167.99, -1105.92, -84900.23, 187398.07)" gradientUnits="userSpaceOnUse"><stop offset="0" stop-color="#ee352c"/><stop offset="1" stop-color="#a91d22"/></radialGradient></defs><g id="Layer_2" data-name="Layer 2"><g id="Layer_1-2" data-name="Layer 1"><path class="cls-1" d="M43.68,35.3l-15.16,5L15.33,46.09l-3.69,1c-.94.9-1.91,1.81-3,2.71S6.38,51.7,5.55,52.37a26.44,26.44,0,0,0-3,3A13.06,13.06,0,0,0,.33,59.1a6.23,6.23,0,0,0,.9,5.68C2.77,67.07,5.89,69.41,9.5,71a52.69,52.69,0,0,0,7.29,2.45,95.88,95.88,0,0,0,15.53,2.22c.83,0,2,0,2,0a25,25,0,0,0,1.47-2.82,71.88,71.88,0,0,0,5.38-14.22,70.31,70.31,0,0,0,1.39-9.85c.07-1.12.11-4.85,0-6.09A53.14,53.14,0,0,0,42,37.3a1.18,1.18,0,0,1,0-.45,17.45,17.45,0,0,1,2.07-.61Zm-3.46,2a38.12,38.12,0,0,1,.6,5.76,4.26,4.26,0,0,1,0,.79c-.08,0-1.92-1.09-3.27-1.92-1.13-.72-3.31-2.18-3.65-2.44-.11-.08-.11-.08.83-.42C36.31,38.54,40.07,37.33,40.22,37.33Zm-7.75,2.56a3.93,3.93,0,0,1,1,.53,75.76,75.76,0,0,0,6.95,3.87c.42.19.45.11-.49.79a47.86,47.86,0,0,1-7.85,4.21c-.57.26-1,.45-1.06.45a2,2,0,0,1,.15-.64,34.67,34.67,0,0,0,1.24-8c-.07-1.17-.07-1.17,0-1.17Zm-1.58.6a20.79,20.79,0,0,1-.07,3.35,28.33,28.33,0,0,1-1.06,5,3.24,3.24,0,0,1-.26.79,19.18,19.18,0,0,1-2.14-2.07,15.25,15.25,0,0,1-2.11-3.08,13.36,13.36,0,0,1-.64-1.54c.19-.15,6.24-2.48,6.28-2.45Zm-7.48,2.94c.08,0,.15.22.19.41a14.11,14.11,0,0,0,1.92,3.38,21,21,0,0,0,2.63,2.86l.56.49c.08.07.08.07-1.77.75-2.18.83-4.51,1.66-7.21,2.52-.64.23-1.28.41-1.92.64-.11,0-.08,0,.22-.49a60.34,60.34,0,0,0,4.52-9.14c.18-.48.37-1,.41-1.12a.41.41,0,0,1,.26-.3.4.4,0,0,0,.19,0Zm-2.29.94s-.57,1.24-1.13,2.36C18.86,48.91,17.66,51,16,53.61a10.35,10.35,0,0,1-.56.91c-.08.07-.08.07-.27-.3a10.44,10.44,0,0,1-.86-2.67,9.62,9.62,0,0,1,.07-3.42c.16-.72.16-.72.49-.87,1.39-.71,6.13-2.93,6.21-2.89Zm19.74.82v.49a60.91,60.91,0,0,1-.68,8.61,4.91,4.91,0,0,1-.15.83l-.72-.19a27.9,27.9,0,0,1-5.26-2.26A19.2,19.2,0,0,1,31.38,51l1.05-.56a69.92,69.92,0,0,0,6.28-3.69c.72-.45,1.77-1.24,2-1.43ZM12.47,48.58s0,.07,0,.49a11,11,0,0,0-.11,1.24,8.58,8.58,0,0,0,1,4.58c.23.45.42.87.42.87s-7.67,2.29-10,2.93c-.71.19-1.32.38-1.39.38s-.08,0-.08-.19a12.06,12.06,0,0,1,3.35-5.75,15.06,15.06,0,0,1,3.76-2.9c1.16-.6,2.93-1.62,3.12-1.65Zm17.86,3.19s.3.15.6.34a34,34,0,0,0,8.76,3.42l.26.08-.37.19C38,56.66,33,58.73,27.92,60.65c-.75.26-1.46.56-1.61.6a.7.7,0,0,1-.27.07s.19-.41.45-.9a58.44,58.44,0,0,0,3.61-8.2,4.49,4.49,0,0,0,.23-.45Zm-1.81.6a4.36,4.36,0,0,1-.18.53,76,76,0,0,1-4,8c-.41.75-.79,1.35-.79,1.35s-.34-.19-.75-.45a22.76,22.76,0,0,1-6-5.11l-.19-.27,1.06-.3a73.71,73.71,0,0,0,10.07-3.46c.34-.15.72-.3.75-.3Zm11.32,4c0,.26-.56,2.63-1.05,4.33-.42,1.42-.75,2.55-1.39,4.54-.27.87-.53,1.58-.53,1.58a.47.47,0,0,1-.15,0A45.87,45.87,0,0,1,27.4,64.1c-.79-.33-2-.82-2-.9a9.66,9.66,0,0,1,1.54-.71c5.22-2.3,10.6-4.85,12.48-6a2.58,2.58,0,0,1,.45-.19Zm-26.13.9s-1.43,2.11-3.46,5c-.71,1-1.54,2.18-1.84,2.59s-.79,1.13-1,1.54l-.49.75-.53-.45A20,20,0,0,1,4.2,64.44a9.61,9.61,0,0,1-1.92-3.68c-.11-.57-.11-.83,0-.87s3.23-.75,6.09-1.43c1.58-.37,3.42-.79,4.1-1l1.24-.27Zm1.47.57.37.41a22.2,22.2,0,0,0,5.38,4.4c.38.19.64.38.6.41s-7.07,2.56-10.34,3.65c-1.8.64-3.31,1.17-3.34,1.17l-.23-.15-.19-.15L7.77,67c1.09-1.54,2.44-3.27,5.38-6.81Zm9.13,6.54,1.13.41a37.43,37.43,0,0,0,4.25,1.32,49.88,49.88,0,0,0,6.43,1.13c.26,0,.37,0,.34.07s-1.77.6-3,1c-2,.6-8,2.4-12.9,3.79-.9.27-1.69.49-1.73.49a.79.79,0,0,1-.48-.11,4.5,4.5,0,0,1,.6-.75,73.8,73.8,0,0,0,4.66-6.24,10,10,0,0,1,.71-1.13Zm-2,0s-.79,1.31-2.22,3.57c-.6.94-1.27,2-1.54,2.41l-.75,1.27-.34.61-.19,0c-.41-.12-3.3-1.13-4.06-1.43a28,28,0,0,1-2.67-1.24,12.07,12.07,0,0,1-1.95-1.24s1.58-.45,3.5-.94c5-1.36,7.78-2.15,9.62-2.75a3.08,3.08,0,0,1,.6-.22Zm14.25,3.34c.08.12-1.8,5.27-2.48,6.88-.15.38-.19.45-.3.45s-2.9-.37-4.51-.63c-2.86-.46-7.63-1.28-8.84-1.55l-.26-.07,1.69-.38c3.69-.82,5.42-1.28,7.22-1.8A49,49,0,0,0,35.78,68C36.16,67.86,36.46,67.71,36.53,67.71Z"/><path class="cls-2" d="M28,0a72.25,72.25,0,0,0-7,2.48,41.17,41.17,0,0,0-8,4,5.78,5.78,0,0,0-1.54,1.54,1.23,1.23,0,0,0-.08.37L13,9.89l3.65,1.16,8.69,1.55,9.92,1.69.11-.87h-.07L34,13.23l-.26-.45C32.4,10.42,30.89,7.44,30,5.45A34.56,34.56,0,0,1,28.37.83C28.19,0,28.15,0,28,0Zm-.19.56a3.17,3.17,0,0,1,.11.72,22.47,22.47,0,0,0,1.13,4.81c.41,1.28.41,1.2-.08,1-1.16-.33-6.39-1.24-10.19-1.76a6,6,0,0,1-1.12-.19s2.74-1.5,3.94-2.07C23.22,2.41,27.55.64,27.85.56ZM16.79,5.72l.45.15A67.83,67.83,0,0,0,29.16,8.12l.72.08a7.78,7.78,0,0,1-.72.37c-1.61.83-3.42,1.81-4.66,2.6a6.17,6.17,0,0,1-.75.41l-.53-.07-.45-.08L21.64,10.3c-2-2-3.61-3.46-4.21-4.06Zm-.45.33,1.62,2c.86,1.13,1.77,2.18,1.95,2.45a4.76,4.76,0,0,1,.34.45s-2.33-.41-3.53-.68a25.49,25.49,0,0,1-2.52-.67l-.64-.19V9.29c0-.75,1-1.92,2.63-3.09ZM30.07,8.8s.11.11.22.41c.38.87,1.62,3.16,1.92,3.61.07.15.26.15-1.36-.11-3.87-.64-5.11-.83-5.11-.87l.26-.18a24.2,24.2,0,0,0,3.5-2.41,4.35,4.35,0,0,1,.57-.45Z"/><path class="cls-3" d="M11.64,7.86a1.12,1.12,0,0,0,0,1,4.39,4.39,0,0,0,1.09,1.28s5.12,5,5.72,5.68a15.94,15.94,0,0,1,4.17,10.86,17.32,17.32,0,0,1-1.8,8.24Q17.27,42.72,5.66,52.22l1.13-.37a32.51,32.51,0,0,1,4.06-2.41A142.89,142.89,0,0,1,29.76,41c10.72-4,28.35-8.76,38.39-10.3l1-.15-.15-.26A32.48,32.48,0,0,0,66.76,27a27,27,0,0,0-8.12-6.76c-4.47-2.52-10.3-4.48-17.67-5.94-1.39-.27-4.44-.79-6.92-1.17-5.26-.83-8.65-1.39-12.37-2-1.35-.23-3.34-.56-4.66-.87a28.94,28.94,0,0,1-3-.82c-.9-.27-2.06-.6-2.33-1.58Zm3,2.89a3.89,3.89,0,0,0,.45.15c.46.15,1,.34,1.66.49s1,.27,1.5.42l1.28.33c.08.08,1.24,3.8,1.62,5.19.15.53.26,1,.26,1a4.16,4.16,0,0,1-.3-.45,24.57,24.57,0,0,0-5.9-6.7l-.57-.45Zm5.64,1.55a2.93,2.93,0,0,1,.6.11c2,.45,5.46,1.09,7.67,1.46a4.07,4.07,0,0,1,.68.15s-.15.12-.3.19c-.38.19-1.92,1.09-2.41,1.43a23.36,23.36,0,0,0-3.23,2.6l-.6.6a1.82,1.82,0,0,1-.11-.45,37.35,37.35,0,0,0-2.07-5.61c-.15-.22-.27-.48-.23-.48Zm9.89,1.87a4.1,4.1,0,0,1,.41,1.28,20.23,20.23,0,0,1,.57,5.27,7.32,7.32,0,0,1-.08,1l0,.12-.61-.19c-1.24-.38-3.23-1-4.92-1.47a17,17,0,0,1-1.77-.52,23.41,23.41,0,0,1,2-2c1.17-1,4.33-3.46,4.4-3.43Zm.79.12s4.74.79,6.88,1.2c1.58.3,3.91.79,4.06.87s-.19.15-.94.48a54.72,54.72,0,0,0-7.52,4.06c-.6.38-1.09.72-1.09.72a7,7,0,0,1,0-.72A16.34,16.34,0,0,0,31,14.66C31,14.48,30.93,14.33,30.93,14.29Zm12.18,2.4a7.06,7.06,0,0,1-.26,1.51A29.16,29.16,0,0,1,40,24.81a4.84,4.84,0,0,1-.49.79,4,4,0,0,1-.67-.37,34.6,34.6,0,0,0-4.48-2.18,5.67,5.67,0,0,1-.86-.38A65.45,65.45,0,0,1,39,19C40.56,18.05,43.07,16.66,43.11,16.69Zm.87.15c.11,0,2.18.57,3.27.91A59.32,59.32,0,0,1,55,20.6l.83.38-.6.15a83.36,83.36,0,0,0-13.2,4.1c-.34.15-.64.26-.64.26s.07-.26.23-.6a22.36,22.36,0,0,0,2.21-7.63,3.83,3.83,0,0,0,.12-.42ZM23.22,21.62a20.57,20.57,0,0,1,2.48.6c1.32.38,4.06,1.28,4.06,1.35l-.67.61c-1.51,1.24-2.93,2.55-4.66,4.24-.53.49-.94.91-1,.91s0-.08,0-.15a27.2,27.2,0,0,0-.15-6.92,4.65,4.65,0,0,0,0-.64Zm33.46,0s-.75,1.2-1.2,1.88c-.68,1-1.69,2.29-4,5.15-1.21,1.5-2.56,3.23-3,3.79a12,12,0,0,1-.87,1.06l-.34-.45A23.59,23.59,0,0,0,42.66,28a5.89,5.89,0,0,0-.86-.67,1.75,1.75,0,0,1-.23-.19s2-.87,3.42-1.47c2.6-1.05,6.13-2.33,8.76-3.12A25.3,25.3,0,0,1,56.68,21.66Zm.91.22a2.43,2.43,0,0,1,.64.34A38.72,38.72,0,0,1,65.9,28c.6.6,2.1,2.15,2.06,2.18l-1.12.08a113.66,113.66,0,0,0-16.92,2.82c-.42.07-.76.19-.79.19a9.61,9.61,0,0,1,1-1,29.23,29.23,0,0,0,7-9.25,8,8,0,0,1,.53-1.13Zm-25.53,2.6c.15,0,1.65.75,2.78,1.27l2.67,1.4s-.53.3-1.2.64c-2.15,1.09-4,2.1-5.94,3.27l-1,.6s0,0,.26-.6A25.29,25.29,0,0,0,32,24.74c0-.15.07-.26.11-.26Zm-1.47.3A18,18,0,0,1,30,27a28.48,28.48,0,0,1-2,4.66l-.6,1.05-.3.45-.64-.6A9.13,9.13,0,0,0,24.28,31a2,2,0,0,1-.57-.34c0-.07,2-1.88,3.46-3.16C28.26,26.54,30.55,24.74,30.59,24.78Zm9.1,3.72.56.38a40.35,40.35,0,0,1,4,2.93c.64.52,1.92,1.65,2.18,1.95l.15.15-.94.27c-5.26,1.46-9.28,2.74-14,4.47-.53.19-1,.34-1,.34s-.11.07,1.06-1a51.74,51.74,0,0,0,7.7-8.83Zm-2.41.6s-1.54,2.22-2.48,3.5c-1.13,1.5-3.12,4-4.47,5.6a15.14,15.14,0,0,1-1.09,1.24s0-.15,0-.41a9.43,9.43,0,0,0-1-4.14c-.26-.53-.3-.64-.26-.71.23-.19,3.53-2.11,5.68-3.24C35,30.19,37.25,29.06,37.28,29.1ZM22.81,32.64s.3.15.6.3a15.89,15.89,0,0,1,2,1.31s-.27.27-.68.57c-1.09.79-2.75,2-3.69,2.78s-1.05.83-.94.64a26.62,26.62,0,0,0,1.55-2.63c.33-.76.71-1.62,1-2.41a1.4,1.4,0,0,1,.23-.56Zm3.87,3c.08,0,.11.08.45.56a8.34,8.34,0,0,1,1.28,3.35l0,.23-1.58.6c-2.82,1.09-5.41,2.18-7.14,3l-1.92.9c-.57.3-1,.49-1,.49l.79-.6a46.62,46.62,0,0,0,8.61-7.94,3,3,0,0,1,.49-.56Zm-1.77.41a27.08,27.08,0,0,1-2.14,2.45,39.53,39.53,0,0,1-7.1,5.75c-.34.23-.64.41-.68.45s0-.07,1.2-1.35c.75-.83,1.32-1.51,2-2.33A4.51,4.51,0,0,1,19.31,40C21,38.69,24.84,36.06,24.91,36.09Z"/></g></g></svg>