<svg xmlns="http://www.w3.org/2000/svg" viewBox="0 0 69.73 78.61"><defs><style>.cls-1{fill:#689f63;}</style></defs><g id="Layer_2" data-name="Layer 2"><g id="Layer_1-2" data-name="Layer 1"><path class="cls-1" d="M34.88,78.61a6,6,0,0,1-3-.81l-9.62-5.69c-1.43-.8-.73-1.09-.26-1.25a19.44,19.44,0,0,0,4.35-2,.7.7,0,0,1,.71.05l7.39,4.38a.94.94,0,0,0,.89,0L64.13,56.68a.9.9,0,0,0,.44-.78V22.66a.93.93,0,0,0-.44-.79L35.33,5.26a.89.89,0,0,0-.89,0L5.66,21.87a.92.92,0,0,0-.46.79V55.9a.88.88,0,0,0,.45.77l7.88,4.56c4.29,2.14,6.9-.39,6.9-2.92V25.5a.82.82,0,0,1,.84-.83h3.65a.83.83,0,0,1,.83.83V58.32c0,5.71-3.12,9-8.53,9-1.67,0-3,0-6.64-1.8L3,61.15A6.08,6.08,0,0,1,0,55.9V22.66a6,6,0,0,1,3-5.25L31.86.77a6.31,6.31,0,0,1,6,0l28.8,16.65a6.05,6.05,0,0,1,3,5.24V55.9a6.09,6.09,0,0,1-3,5.25L37.91,77.79a6.08,6.08,0,0,1-3,.81"/><path class="cls-1" d="M43.78,55.71c-12.61,0-15.25-5.79-15.25-10.64a.83.83,0,0,1,.84-.83h3.72a.84.84,0,0,1,.82.7c.56,3.8,2.23,5.71,9.85,5.71,6.08,0,8.66-1.37,8.66-4.59,0-1.86-.74-3.23-10.17-4.16-7.89-.78-12.76-2.51-12.76-8.82,0-5.81,4.9-9.27,13.11-9.27,9.23,0,13.8,3.2,14.37,10.08a.83.83,0,0,1-.76.9H52.4a.83.83,0,0,1-.81-.65c-.9-4-3.08-5.26-9-5.26-6.63,0-7.4,2.31-7.4,4,0,2.1.91,2.71,9.85,3.89S58.1,39.65,58.1,45.87s-5.24,9.87-14.36,9.87"/></g></g></svg>