<svg xmlns="http://www.w3.org/2000/svg" xmlns:xlink="http://www.w3.org/1999/xlink" viewBox="0 0 76.8 40.4"><defs><style>.cls-1{fill:none;}.cls-2{clip-path:url(#clip-path);}.cls-3{fill:url(#radial-gradient);}.cls-4{clip-path:url(#clip-path-2);}.cls-5{fill:#777bb3;}.cls-6{fill:#fff;}</style><clipPath id="clip-path" transform="translate(-1.6 -2.3)"><path class="cls-1" d="M1.6,22.5C1.6,33.66,18.79,42.7,40,42.7h0c21.21,0,38.4-9,38.4-20.2h0C78.4,11.34,61.21,2.3,40,2.3h0c-21.21,0-38.4,9-38.4,20.2"/></clipPath><radialGradient id="radial-gradient" cx="100.35" cy="163.83" r="0.11" gradientTransform="matrix(453.82, 0, 0, -453.82, -45517.56, 74357.37)" gradientUnits="userSpaceOnUse"><stop offset="0" stop-color="#aeb2d5"/><stop offset="0.3" stop-color="#aeb2d5"/><stop offset="0.75" stop-color="#484c89"/><stop offset="1" stop-color="#484c89"/></radialGradient><clipPath id="clip-path-2" transform="translate(-1.6 -2.3)"><rect class="cls-1" width="80" height="45"/></clipPath></defs><g id="Layer_2" data-name="Layer 2"><g id="Layer_1-2" data-name="Layer 1"><g id="g3438"><g id="g3440"><g class="cls-2"><g id="g3442"><g id="g3448"><g id="g3450"><path id="path3462" class="cls-3" d="M1.6,22.5C1.6,33.66,18.79,42.7,40,42.7h0c21.21,0,38.4-9,38.4-20.2h0C78.4,11.34,61.21,2.3,40,2.3h0c-21.21,0-38.4,9-38.4,20.2" transform="translate(-1.6 -2.3)"/></g></g></g></g></g><g id="g3464"><g class="cls-4"><g id="g3466"><g id="g3472"><path id="path3474" class="cls-5" d="M40,41.2c20.38,0,36.9-8.37,36.9-18.7S60.38,3.8,40,3.8,3.1,12.17,3.1,22.5,19.62,41.2,40,41.2" transform="translate(-1.6 -2.3)"/></g></g></g></g><g id="g3476"><g class="cls-4"><g id="g3478"><g id="g3484"><path id="path3486" d="M22.46,24.82a6.11,6.11,0,0,0,3.72-.92,5,5,0,0,0,1.61-3.1c.26-1.37.16-2.32-.3-2.83s-1.5-.79-3-.79H21.77l-1.48,7.64ZM13.7,34.23a.44.44,0,0,1-.32-.15.41.41,0,0,1-.08-.35l3.93-20.24a.42.42,0,0,1,.41-.34h8.48c2.66,0,4.65.73,5.89,2.15s1.64,3.44,1.15,6a9.25,9.25,0,0,1-1,2.84,9.4,9.4,0,0,1-1.87,2.35,8.28,8.28,0,0,1-3.09,1.85,14,14,0,0,1-4.24.55H19.5l-1,5a.41.41,0,0,1-.41.34Z" transform="translate(-1.6 -2.3)"/></g><g id="g3488"><path id="path3490" class="cls-6" d="M22.11,17.6h2.34c1.86,0,2.51.41,2.73.65.37.4.43,1.26.2,2.47a4.57,4.57,0,0,1-1.45,2.85,5.79,5.79,0,0,1-3.47.83H20.79Zm4-4.86H17.64a.84.84,0,0,0-.82.67L12.89,33.65a.81.81,0,0,0,.17.69.85.85,0,0,0,.64.3h4.41a.83.83,0,0,0,.82-.67l.92-4.71h3.09a14.6,14.6,0,0,0,4.37-.56,8.55,8.55,0,0,0,3.24-1.95,9.88,9.88,0,0,0,2-2.45,9.67,9.67,0,0,0,1.06-3c.52-2.65.1-4.77-1.24-6.31s-3.42-2.29-6.21-2.29m-6.34,12.5h2.68a6.49,6.49,0,0,0,4-1,5.36,5.36,0,0,0,1.76-3.35c.29-1.51.16-2.57-.4-3.19s-1.68-.93-3.35-.93h-3l-1.65,8.48m6.34-11.67q3.82,0,5.58,2c1.17,1.34,1.52,3.2,1.06,5.6a8.81,8.81,0,0,1-2.77,5,7.7,7.7,0,0,1-2.94,1.76,13.54,13.54,0,0,1-4.11.53H19.16l-1.05,5.38H13.7l3.94-20.24h8.48" transform="translate(-1.6 -2.3)"/></g><g id="g3492"><path id="path3494" d="M43.28,28.85a.42.42,0,0,1-.33-.16.38.38,0,0,1-.08-.34l1.74-9c.16-.85.12-1.46-.12-1.72s-.59-.42-1.89-.42H39.45L37.26,28.51a.43.43,0,0,1-.41.34H32.48a.39.39,0,0,1-.32-.16.38.38,0,0,1-.09-.34L36,8.11a.42.42,0,0,1,.41-.34h4.38a.44.44,0,0,1,.32.15.44.44,0,0,1,.09.35l-1,4.88h3.39c2.58,0,4.33.46,5.35,1.39s1.37,2.49,1,4.55l-1.83,9.42a.43.43,0,0,1-.41.34Z" transform="translate(-1.6 -2.3)"/></g><g id="g3496"><path id="path3498" class="cls-6" d="M40.79,7.35H36.41a.84.84,0,0,0-.82.68L31.66,28.27a.82.82,0,0,0,.82,1h4.37a.84.84,0,0,0,.82-.67l2.12-10.92H42.6c1.3,0,1.58.27,1.59.29s.18.47,0,1.35l-1.74,9a.82.82,0,0,0,.17.69.85.85,0,0,0,.65.3h4.44a.84.84,0,0,0,.82-.67l1.83-9.42c.43-2.21.06-3.87-1.09-4.93s-3-1.5-5.64-1.5H40.75l.85-4.39a.84.84,0,0,0-.81-1m0,.84-1,5.38h3.9q3.68,0,5.07,1.28c.93.86,1.21,2.24.84,4.16l-1.83,9.42H43.28l1.74-9c.19-1,.12-1.71-.22-2.08a3.1,3.1,0,0,0-2.2-.56H39.11l-2.26,11.6H32.48L36.41,8.19h4.38" transform="translate(-1.6 -2.3)"/></g><g id="g3500"><path id="path3502" d="M56.88,24.82a6.11,6.11,0,0,0,3.72-.92,5,5,0,0,0,1.61-3.1c.26-1.37.16-2.32-.3-2.83s-1.5-.79-3-.79H56.19l-1.48,7.64Zm-8.76,9.41a.44.44,0,0,1-.32-.15.45.45,0,0,1-.09-.35l3.94-20.24a.42.42,0,0,1,.41-.34h8.48c2.66,0,4.65.73,5.89,2.15s1.64,3.44,1.15,6a9.51,9.51,0,0,1-1,2.84,9.63,9.63,0,0,1-1.87,2.35A8.28,8.28,0,0,1,61.6,28.3a14,14,0,0,1-4.24.55H53.92l-1,5a.42.42,0,0,1-.41.34Z" transform="translate(-1.6 -2.3)"/></g><g id="g3504"><path id="path3506" class="cls-6" d="M56.53,17.6h2.34c1.86,0,2.51.41,2.73.65a3.1,3.1,0,0,1,.2,2.47,4.62,4.62,0,0,1-1.45,2.85,5.79,5.79,0,0,1-3.47.83H55.21Zm4-4.86H52.06a.84.84,0,0,0-.82.67L47.31,33.65a.81.81,0,0,0,.17.69.83.83,0,0,0,.64.3h4.41a.83.83,0,0,0,.82-.67l.92-4.71h3.09a14.65,14.65,0,0,0,4.37-.56A8.63,8.63,0,0,0,65,26.75a9.54,9.54,0,0,0,3-5.41c.52-2.65.1-4.77-1.24-6.31s-3.42-2.29-6.21-2.29M54.2,25.24h2.68a6.46,6.46,0,0,0,4-1,5.37,5.37,0,0,0,1.77-3.35c.29-1.51.16-2.57-.4-3.19s-1.68-.93-3.35-.93h-3L54.2,25.24m6.34-11.67q3.83,0,5.58,2c1.17,1.34,1.52,3.2,1,5.6a9,9,0,0,1-1,2.72,9.43,9.43,0,0,1-1.79,2.24,7.78,7.78,0,0,1-2.94,1.76,13.54,13.54,0,0,1-4.11.53H53.58l-1,5.38H48.12l3.94-20.24h8.48" transform="translate(-1.6 -2.3)"/></g></g></g></g></g></g></g></svg>