<svg width="20" height="21" viewBox="0 0 20 21" fill="none" xmlns="http://www.w3.org/2000/svg">
<path fill-rule="evenodd" clip-rule="evenodd" d="M18 0.5H2C0.89543 0.5 0 1.39543 0 2.5V18.5C0 19.6046 0.89543 20.5 2 20.5H18C19.1046 20.5 20 19.6046 20 18.5V2.5C20 1.39543 19.1046 0.5 18 0.5ZM15.3495 6.73936C15.9305 6.6722 16.484 6.5233 16.9993 6.30204C16.6143 6.85858 16.127 7.34743 15.5654 7.73945C15.5708 7.85867 15.5735 7.97841 15.5735 8.09867C15.5735 11.7685 12.6853 16 7.4021 16C5.77978 16 4.27053 15.5403 2.99927 14.7526C3.22434 14.7786 3.45317 14.7917 3.6847 14.7917C5.0308 14.7917 6.26922 14.3476 7.25187 13.6026C5.99515 13.5802 4.93442 12.7769 4.56882 11.6737C4.74382 11.7055 4.92419 11.7232 5.10888 11.7232C5.3711 11.7232 5.62524 11.6893 5.86593 11.6258C4.55159 11.3712 3.56194 10.2488 3.56194 8.90302V8.86814C3.94908 9.07586 4.39221 9.20081 4.86281 9.21538C4.0923 8.71768 3.58563 7.86752 3.58563 6.90439C3.58563 6.39471 3.72724 5.91783 3.97385 5.50759C5.39102 7.18812 7.50709 8.2939 9.894 8.40948C9.84554 8.20696 9.8197 7.99455 9.8197 7.77693C9.8197 6.24373 11.1055 4.99999 12.6917 4.99999C13.5177 4.99999 14.264 5.33735 14.7879 5.87722C15.4426 5.75228 16.0575 5.52112 16.6121 5.20303C16.3978 5.85171 15.9428 6.39575 15.3495 6.73936Z" fill="white"/>
</svg>
