<svg width="20" height="21" viewBox="0 0 20 21" fill="none" xmlns="http://www.w3.org/2000/svg">
<path fill-rule="evenodd" clip-rule="evenodd" d="M6 0.5H14C17.3137 0.5 20 3.18629 20 6.5V14.5C20 17.8137 17.3137 20.5 14 20.5H6C2.68629 20.5 0 17.8137 0 14.5V6.5C0 3.18629 2.68629 0.5 6 0.5ZM15.9995 3.50001C16.4995 3.50001 16.9995 4.00001 16.9995 4.50001C16.9995 5.00001 16.4995 5.50001 15.9995 5.50001C15.4995 5.50001 14.9995 5.00001 14.9995 4.50001C14.9995 4.00001 15.4995 3.50001 15.9995 3.50001ZM15.0004 10.5C15.0004 7.74252 12.7579 5.50002 10.0004 5.50002C7.24287 5.50002 5.00037 7.74252 5.00037 10.5C5.00037 13.2575 7.24287 15.5 10.0004 15.5C12.7579 15.5 15.0004 13.2575 15.0004 10.5ZM9.99988 7.49998C8.34302 7.49998 6.99988 8.84312 6.99988 10.5C6.99988 12.1568 8.34302 13.5 9.99988 13.5C11.6567 13.5 12.9999 12.1568 12.9999 10.5C12.9999 8.84312 11.6567 7.49998 9.99988 7.49998Z" fill="white"/>
</svg>
