<svg width="20" height="21" viewBox="0 0 20 21" fill="none" xmlns="http://www.w3.org/2000/svg">
<path fill-rule="evenodd" clip-rule="evenodd" d="M18 0.5H2C0.89543 0.5 0 1.39543 0 2.5V18.5C0 19.6046 0.89543 20.5 2 20.5H18C19.1046 20.5 20 19.6046 20 18.5V2.5C20 1.39543 19.1046 0.5 18 0.5ZM4.00122 5.06406C4.00122 5.92751 4.70154 6.62901 5.5676 6.62901C6.43092 6.62901 7.13306 5.92751 7.13306 5.06406C7.13306 4.20152 6.43092 3.50002 5.5676 3.50002C4.70245 3.50002 4.00122 4.20061 4.00122 5.06406ZM4.25195 16.5H6.93847V7.86369H4.25195V16.5ZM17.0006 16.5H14.3159V12.3001C14.3159 11.2984 14.2977 10.01 12.9198 10.01C11.5219 10.01 11.307 11.1009 11.307 12.2273V16.5H8.62231V7.86369H11.1995V9.04377H11.236C11.5948 8.36502 12.4709 7.64896 13.7777 7.64896C16.4979 7.64896 17.0006 9.43773 17.0006 11.7633V16.5Z" fill="white"/>
</svg>
