<svg width="20" height="21" viewBox="0 0 20 21" fill="none" xmlns="http://www.w3.org/2000/svg">
<path fill-rule="evenodd" clip-rule="evenodd" d="M18 0.5H2C0.89543 0.5 0 1.39543 0 2.5V18.5C0 19.6046 0.89543 20.5 2 20.5H9.99988V12.9706H6.99988V10.1471H9.99988V8.63084C9.99988 5.76025 11.4896 4.50002 13.9248 4.50002C15.0682 4.50002 15.6835 4.58143 15.9823 4.62099L15.9999 4.62331V7.32354H14.3389C13.3052 7.32354 12.9999 7.85813 12.9999 8.94049V10.1471H15.9739L15.5628 12.9706H12.9999V20.5H18C19.1046 20.5 20 19.6046 20 18.5V2.5C20 1.39543 19.1046 0.5 18 0.5Z" fill="white"/>
</svg>
