<svg xmlns="http://www.w3.org/2000/svg" xmlns:xlink="http://www.w3.org/1999/xlink" viewBox="0 0 249 195.14"><defs><style>.cls-1{fill:url(#linear-gradient);}.cls-2{fill:url(#linear-gradient-2);}.cls-3{fill:url(#linear-gradient-3);}</style><linearGradient id="linear-gradient" x1="225.94" y1="-87.45" x2="88.42" y2="175.96" gradientTransform="translate(0 64)" gradientUnits="userSpaceOnUse"><stop offset="0" stop-color="#00ffa3"/><stop offset="1" stop-color="#dc1fff"/></linearGradient><linearGradient id="linear-gradient-2" x1="165.81" y1="-118.84" x2="28.29" y2="144.57" xlink:href="#linear-gradient"/><linearGradient id="linear-gradient-3" x1="195.68" y1="-103.24" x2="58.16" y2="160.16" xlink:href="#linear-gradient"/></defs><g id="Layer_2" data-name="Layer 2"><g id="Layer_1-2" data-name="Layer 1"><path class="cls-1" d="M40.45,148.93a8.16,8.16,0,0,1,5.76-2.37H244.92a4.07,4.07,0,0,1,2.88,6.94l-39.25,39.26a8.17,8.17,0,0,1-5.76,2.38H4.08a4.07,4.07,0,0,1-2.88-6.95Z"/><path class="cls-2" d="M40.45,2.38A8.41,8.41,0,0,1,46.21,0H244.92a4.07,4.07,0,0,1,2.88,7L208.55,46.2a8.17,8.17,0,0,1-5.76,2.38H4.08A4.07,4.07,0,0,1,1.2,41.63Z"/><path class="cls-3" d="M208.55,75.19a8.13,8.13,0,0,0-5.76-2.38H4.08a4.07,4.07,0,0,0-2.88,7L40.45,119a8.17,8.17,0,0,0,5.76,2.38H244.92a4.07,4.07,0,0,0,2.88-7Z"/></g></g></svg>